PathFileType	4	(X/Y/Z)	S1_rest_slow_right.trc
DataRate	CameraRate	NumFrames	NumMarkers	Units	OrigDataRate	OrigDataStartFrame	OrigNumFrames
250.00	250.00	12	18	mm	250.00	12537	25073
Frame#	Time	c7	r_should	l_should	clavicle	r_upa	r_elb_l	r_elb_m	r_low	r_wri_l	r_wri_m	r_met	l_upa	l_elb_l	l_elb_m	l_low	l_wri_l	l_wri_m	l_met
	X1	Y1	Z1	X2	Y2	Z2	X3	Y3	Z3	X4	Y4	Z4	X5	Y5	Z5	X6	Y6	Z6	X7	Y7	Z7	X8	Y8	Z8	X9	Y9	Z9	X10	Y10	Z10	X11	Y11	Z11	X12	Y12	Z12	X13	Y13	Z13	X14	Y14	Z14	X15	Y15	Z15	X16	Y16	Z16	X17	Y17	Z17	X18	Y18	Z18
12537	50.14400	390.61884	1417.12134	39.31516	469.63843	1350.28137	198.77249	410.66428	1369.43457	-162.76332	526.00635	1300.23596	-1.92255	467.67532	1138.91418	244.21028	490.10574	1044.27551	260.65146	459.84174	1017.03369	163.77559	503.42215	905.54095	238.35469	588.13470	847.93579	278.21100	579.53882	828.19788	204.09735	581.67670	770.06042	299.69952	385.21841	1161.59265	-232.99927	387.38348	1082.62439	-255.62318	332.57986	1046.50098	-179.08560	376.88715	936.74884	-267.19110	476.72598	872.84808	-250.48997	411.57358	845.01550	-265.36115	508.29959	800.22467	-281.12961
12538	50.14800	390.57037	1417.12170	39.27941	469.51300	1350.30090	198.76511	410.67783	1369.43042	-162.79178	525.98676	1300.24121	-1.91108	467.39594	1138.96619	244.28476	489.63956	1044.37451	260.44574	459.53650	1017.06458	163.92827	503.60526	905.72369	238.42545	588.56036	848.45459	278.24146	580.03516	828.73889	204.11710	582.43762	770.57947	299.69736	385.27084	1161.59082	-233.04018	387.44730	1082.62390	-255.66245	332.62924	1046.49609	-179.14882	376.98004	936.75769	-267.24142	476.81372	872.85553	-250.49400	411.66431	845.01898	-265.40158	508.40854	800.23370	-281.11819
12539	50.15200	390.52731	1417.12781	39.25041	469.39279	1350.32849	198.75745	410.69217	1369.42664	-162.81865	525.97095	1300.24890	-1.90823	467.11868	1139.01355	244.35150	489.16296	1044.38232	260.46814	459.22449	1017.11823	164.06905	503.78479	905.91858	238.50797	588.95654	848.98157	278.26981	580.54926	829.28284	204.13641	583.20203	771.09540	299.69174	385.32538	1161.58984	-233.08852	387.51996	1082.62280	-255.70345	332.67792	1046.48926	-179.20576	377.07309	936.75812	-267.28534	476.90433	872.86951	-250.50645	411.75818	845.02710	-265.43695	508.51984	800.24884	-281.10242
12540	50.15600	390.47824	1417.12817	39.20539	469.27536	1350.35754	198.75061	410.71021	1369.42383	-162.84319	525.95007	1300.26343	-1.90970	466.84552	1139.04614	244.40764	488.56128	1044.24744	260.60419	458.92398	1017.17761	164.21658	503.96521	906.12805	238.59486	589.36163	849.51880	278.30963	581.06061	829.83459	204.16565	584.01031	771.59766	299.65585	385.37885	1161.59668	-233.13719	387.59253	1082.62646	-255.74231	332.72220	1046.48425	-179.26720	377.16281	936.75531	-267.32462	476.99323	872.88538	-250.51695	411.85422	845.03180	-265.47043	508.63342	800.27020	-281.09744
12541	50.16000	390.42865	1417.12695	39.16741	469.16013	1350.38477	198.74632	410.73032	1369.41882	-162.86069	525.93378	1300.28540	-1.90572	466.58112	1139.08167	244.47571	488.14954	1044.32471	260.72702	458.64771	1017.22168	164.35655	504.14587	906.34161	238.69347	589.77673	850.06226	278.35263	581.55029	830.41370	204.20744	584.82483	772.10712	299.62604	385.43738	1161.60156	-233.17273	387.66025	1082.62866	-255.78117	332.77087	1046.46924	-179.32332	377.24994	936.75397	-267.36130	477.08307	872.89807	-250.52293	411.94803	845.03735	-265.50296	508.74478	800.28668	-281.09082
12542	50.16400	390.37814	1417.12854	39.13544	469.04617	1350.40979	198.74112	410.74838	1369.41284	-162.87900	525.91467	1300.30261	-1.89952	466.31058	1139.12976	244.54977	487.93097	1044.56714	260.78854	458.41290	1017.25629	164.50876	504.33057	906.54578	238.79547	590.31860	850.81549	278.44067	582.00275	831.01575	204.27211	585.62213	772.64185	299.62662	385.50150	1161.60144	-233.21121	387.72433	1082.63770	-255.81914	332.81531	1046.45886	-179.36710	377.33566	936.75769	-267.39594	477.17249	872.90851	-250.52095	412.04028	845.04626	-265.53195	508.85266	800.30524	-281.07703
12543	50.16800	390.33154	1417.12939	39.10754	468.92773	1350.43896	198.74483	410.76538	1369.41736	-162.89000	525.89703	1300.32263	-1.88811	466.02115	1139.17639	244.62477	487.90414	1044.95569	260.78610	458.18512	1017.29443	164.65361	504.52618	906.74866	238.88365	591.02795	851.82098	278.58640	582.47400	831.62927	204.32994	586.42499	773.19159	299.62473	385.55914	1161.60608	-233.24492	387.79294	1082.63989	-255.84874	332.86356	1046.45288	-179.40730	377.42334	936.75775	-267.42786	477.26285	872.91931	-250.51945	412.13025	845.05194	-265.55890	508.96173	800.32977	-281.06433
12544	50.17200	390.28574	1417.13477	39.07973	468.80634	1350.47009	198.74731	410.78201	1369.42090	-162.90369	525.88135	1300.33618	-1.86664	465.72675	1139.23901	244.71417	487.73343	1045.04297	260.88916	457.93576	1017.33612	164.79962	504.72372	906.94989	238.97319	591.53290	852.51959	278.65485	582.96313	832.25073	204.38120	587.23615	773.76910	299.61880	385.62253	1161.60913	-233.28320	387.86618	1082.64111	-255.87866	332.91199	1046.44104	-179.45604	377.51611	936.76184	-267.45975	477.34988	872.93304	-250.51421	412.22049	845.05853	-265.58331	509.06427	800.34259	-281.04550
12545	50.17600	390.23746	1417.13708	39.04773	468.68896	1350.50220	198.74269	410.80725	1369.41736	-162.91714	525.86090	1300.35022	-1.85191	465.41620	1139.29871	244.80695	487.60294	1044.94287	261.04803	457.63110	1017.39380	164.96112	504.91052	907.15918	239.06532	592.01532	853.16595	278.70413	583.45642	832.88385	204.42531	588.02148	774.36957	299.63947	385.68878	1161.61597	-233.31621	387.93567	1082.64185	-255.90906	332.95718	1046.43237	-179.50687	377.60025	936.76721	-267.49402	477.43323	872.94745	-250.50688	412.31113	845.06573	-265.60837	509.16214	800.35278	-281.02780
12546	50.18000	390.18631	1417.14160	39.01662	468.56580	1350.54553	198.73747	410.82770	1369.41602	-162.93495	525.84351	1300.36279	-1.82800	465.09448	1139.33972	244.87921	487.32947	1045.03442	261.15637	457.34543	1017.48822	165.11098	505.09787	907.38000	239.16397	592.48444	853.79913	278.74142	583.97028	833.50891	204.46416	588.82965	774.98651	299.64636	385.75262	1161.62280	-233.34840	387.99860	1082.64417	-255.93864	333.00000	1046.42871	-179.55434	377.68063	936.77533	-267.52548	477.51242	872.95911	-250.50404	412.40259	845.07660	-265.63495	509.18628	800.44196	-281.09711
12547	50.18400	390.13181	1417.13647	38.99304	468.43298	1350.59082	198.74448	410.84909	1369.41748	-162.95337	525.82349	1300.37256	-1.80240	464.78217	1139.39954	244.96338	487.03522	1045.17200	261.23947	457.05032	1017.57501	165.25523	505.29599	907.61810	239.26210	592.96747	854.40631	278.76334	584.50537	834.14124	204.48187	589.67249	775.58148	299.61932	385.81866	1161.62683	-233.37575	388.06046	1082.64648	-255.97597	333.03430	1046.42725	-179.61055	377.76266	936.77740	-267.55594	477.59152	872.97144	-250.49985	412.48920	845.08453	-265.66104	509.11063	800.61493	-281.28433
12548	50.18800	390.07666	1417.13318	38.97065	468.29333	1350.63428	198.74887	410.88397	1369.41553	-162.96500	525.79675	1300.38086	-1.78351	464.48224	1139.46960	245.05713	486.66946	1045.43640	261.27850	456.76767	1017.64417	165.41409	505.49948	907.87567	239.35583	593.43445	855.05042	278.78952	585.05652	834.78735	204.48668	590.50061	776.19202	299.59485	385.88089	1161.62854	-233.40253	388.12848	1082.65430	-256.01440	333.07251	1046.43420	-179.64908	377.84589	936.77905	-267.58618	477.67413	872.97931	-250.49487	412.57129	845.09003	-265.68066	509.15457	800.66559	-281.32587
